<?xml version="1.0" encoding="utf-8"?>
<!-- Generator: Adobe Illustrator 26.0.2, SVG Export Plug-In . SVG Version: 6.00 Build 0)  -->
<svg version="1.1" id="Laag_1" xmlns="http://www.w3.org/2000/svg" xmlns:xlink="http://www.w3.org/1999/xlink" x="0px" y="0px"
	 viewBox="0 0 566.93 566.93" style="enable-background:new 0 0 566.93 566.93;" xml:space="preserve">
<style type="text/css">
	.st0{fill:#16345F;}
	.st1{fill:#FFFFFF;}
	.st2{fill:#E30613;}
	.st3{fill:url(#SVGID_1_);}
	.st4{fill:url(#SVGID_00000169542051564165250450000006912886410585834922_);}
	.st5{fill:url(#SVGID_00000057147600172216752100000013258207733474595220_);}
	.st6{fill:url(#SVGID_00000045621390137770784120000010410401078075694517_);}
	.st7{fill:url(#SVGID_00000088111704547489746840000013347633131793478843_);}
	.st8{fill:url(#SVGID_00000098912502131629123280000013671300149119890323_);}
	.st9{fill:url(#SVGID_00000163757198780993513380000010325000123442427782_);}
	.st10{fill:url(#SVGID_00000054228824507164757750000001884868850149639553_);}
</style>
<rect class="st0" width="566.93" height="566.93"/>
<g>
	<g>
		<path class="st1" d="M797.09,240.74l-0.58,6.01c-1.78-1.05-6.18-2.18-9.84-2.18c-3.68,0-6.31,1.13-6.31,3.93
			c0,2.83,2.4,3.33,4.73,4.03l4.91,1.45c5.61,1.65,8.81,4.06,8.81,9.26c0,6.03-5.13,10.37-12.9,10.37c-4.81,0-10.24-1.2-12.59-2.5
			l0.55-6.04c1.68,1.05,7.21,2.53,11.44,2.53c3.58,0,6.44-1.25,6.44-4.03c0-2.15-1.28-3.11-4.16-3.88l-5.38-1.45
			c-4.33-1.18-8.89-3.53-8.89-9.19c0-6.28,4.93-10.44,12.87-10.44C790.95,238.61,794.38,239.54,797.09,240.74z"/>
		<path class="st1" d="M819.03,249.08h6.41v14.15c0,6.08-4.58,10.39-11.37,10.39c-6.81,0-11.24-4.26-11.24-10.24v-14.3h6.44v13.5
			c0,3.05,1.98,5.13,4.81,5.13c2.98,0,4.96-2.08,4.96-5.13V249.08z"/>
		<path class="st1" d="M852.51,252.83c1.7-2.55,4.76-4.26,8.34-4.26c5.51,0,9.44,3.58,9.44,9.44v15.1h-6.44v-13.45
			c0-3.33-2.05-5.13-4.81-5.13c-2.75,0-5.28,1.73-5.28,4.98v13.6h-6.44v-13.45c0-3.33-2.08-5.13-4.78-5.13
			c-2.78,0-5.26,1.8-5.26,5.13v13.45h-6.43v-24.04h6.11l0.12,2.78c1.23-1.68,3.83-3.28,7.36-3.28
			C848.1,248.58,851.11,250.1,852.51,252.83z"/>
		<path class="st1" d="M897.4,252.83c1.7-2.55,4.76-4.26,8.34-4.26c5.51,0,9.44,3.58,9.44,9.44v15.1h-6.44v-13.45
			c0-3.33-2.05-5.13-4.81-5.13c-2.75,0-5.28,1.73-5.28,4.98v13.6h-6.44v-13.45c0-3.33-2.08-5.13-4.78-5.13
			c-2.78,0-5.26,1.8-5.26,5.13v13.45h-6.43v-24.04h6.11l0.12,2.78c1.23-1.68,3.83-3.28,7.36-3.28
			C892.99,248.58,896,250.1,897.4,252.83z"/>
		<path class="st1" d="M920.1,241.37c0-2.18,1.5-3.71,3.68-3.71c2.18,0,3.71,1.5,3.71,3.71c0,2.18-1.53,3.68-3.71,3.68
			C921.6,245.05,920.1,243.54,920.1,241.37z M920.58,273.12v-24.04h6.43v24.04H920.58z"/>
		<path class="st1" d="M940.5,254.41v9.89c0,2.5,1.4,3.61,3.56,3.61c1.2,0,2.73-0.2,4.08-0.58l0.6,5.33
			c-1.48,0.58-3.86,0.95-5.81,0.95c-5.28,0-8.84-2.73-8.84-8.39v-10.82h-4.06v-5.33h4.08v-7.71h6.23v7.71h6.96v5.33H940.5z"/>
		<path class="st1" d="M979.85,263.1h-7.86v10.02h-6.76v-34h15.77c6.86,0,12.42,4.36,12.42,12.02c0,4.93-2.75,8.81-6.64,10.69
			l9.01,11.27h-8.16L979.85,263.1z M971.99,244.97v12.29h8.24c3.61,0,6.23-2.48,6.23-6.11c0-3.96-2.68-6.18-6.23-6.18H971.99z"/>
		<path class="st1" d="M1020.29,271.36c-2.33,1.33-5.56,2.25-9.06,2.25c-8.51,0-13.97-5.03-13.97-12.52
			c0-7.36,5.21-12.52,12.34-12.52c7.39,0,13,5.56,11.42,14.45h-17.38c0.65,3.36,3.66,4.96,7.61,4.96c2.98,0,5.76-0.7,8.14-1.83
			L1020.29,271.36z M1015.26,258.72c-0.17-2.68-2.2-4.73-5.51-4.73c-3.43,0-5.73,2-6.01,4.73H1015.26z"/>
		<path class="st1" d="M1033.66,254.41v9.89c0,2.5,1.4,3.61,3.56,3.61c1.2,0,2.73-0.2,4.08-0.58l0.6,5.33
			c-1.48,0.58-3.86,0.95-5.81,0.95c-5.28,0-8.84-2.73-8.84-8.39v-10.82h-4.06v-5.33h4.08v-7.71h6.23v7.71h6.96v5.33H1033.66z"/>
		<path class="st1" d="M1043.47,261.05c0-7.29,4.98-12.47,11.59-12.47c3.73,0,6.26,1.43,7.84,3.41l0.13-2.9h6.28v24.04h-6.28
			l-0.13-2.9c-1.58,2-4.11,3.41-7.84,3.41C1048.45,273.62,1043.47,268.33,1043.47,261.05z M1056.31,254.31
			c-3.86,0-6.46,2.9-6.46,6.74c0,3.86,2.6,6.86,6.46,6.86c3.83,0,6.56-3,6.56-6.86C1062.88,257.21,1060.15,254.31,1056.31,254.31z"
			/>
		<path class="st1" d="M1074.45,241.37c0-2.18,1.5-3.71,3.68-3.71c2.18,0,3.71,1.5,3.71,3.71c0,2.18-1.53,3.68-3.71,3.68
			C1075.96,245.05,1074.45,243.54,1074.45,241.37z M1074.93,273.12v-24.04h6.43v24.04H1074.93z"/>
		<path class="st1" d="M1093.4,273.12h-6.41v-35.26h6.41V273.12z"/>
		<path class="st1" d="M793.16,308.86l-11.44-12.82v23.21h-6.76v-34h5.86l12.87,15.22l12.82-15.22h5.83v34h-6.74v-23.24
			l-11.37,12.84H793.16z"/>
		<path class="st1" d="M840.32,317.5c-2.33,1.33-5.56,2.25-9.06,2.25c-8.51,0-13.97-5.03-13.97-12.52c0-7.36,5.21-12.52,12.34-12.52
			c7.39,0,13,5.56,11.42,14.45h-17.38c0.65,3.36,3.66,4.96,7.61,4.96c2.98,0,5.76-0.7,8.14-1.83L840.32,317.5z M835.28,304.86
			c-0.17-2.68-2.2-4.73-5.51-4.73c-3.43,0-5.73,2-6.01,4.73H835.28z"/>
		<path class="st1" d="M844.29,307.21c0-7.31,4.83-12.5,11.64-12.5c3.86,0,6.33,1.4,7.94,3.41v-14.15h6.31v35.28h-6.31l-0.12-2.55
			c-1.6,1.85-4.28,3.05-7.81,3.05C849.12,319.76,844.29,314.47,844.29,307.21z M857.26,300.48c-3.83,0-6.51,2.83-6.51,6.71
			c0,3.81,2.68,6.81,6.51,6.81c3.78,0,6.54-3,6.54-6.81C863.79,303.35,861.04,300.48,857.26,300.48z"/>
		<path class="st1" d="M875.32,287.5c0-2.18,1.5-3.71,3.68-3.71c2.18,0,3.71,1.5,3.71,3.71c0,2.18-1.53,3.68-3.71,3.68
			C876.82,291.19,875.32,289.68,875.32,287.5z M875.8,319.25v-24.04h6.43v24.04H875.8z"/>
		<path class="st1" d="M886.52,307.19c0-7.29,4.98-12.47,11.59-12.47c3.73,0,6.26,1.43,7.84,3.41l0.13-2.9h6.28v24.04h-6.28
			l-0.13-2.9c-1.58,2-4.11,3.41-7.84,3.41C891.51,319.76,886.52,314.47,886.52,307.19z M899.37,300.45c-3.86,0-6.46,2.9-6.46,6.74
			c0,3.86,2.6,6.86,6.46,6.86c3.83,0,6.56-3,6.56-6.86C905.93,303.35,903.2,300.45,899.37,300.45z"/>
		<path class="st1" d="M955.59,305.81h-9.14v-5.71h15.85v16.6c-3.46,1.9-8.46,3.05-12.75,3.05c-12.32,0-20.01-7.29-20.01-17.5
			c0-11.07,8.84-17.48,20.31-17.48c3.86,0,7.66,0.78,10.99,2.3l-0.53,6.03c-1.5-0.68-5.43-2.18-10.09-2.18
			c-7.89,0-13.67,3.93-13.67,11.32c0,6.89,5.11,11.34,12.72,11.34c2.05,0,4.78-0.3,6.31-1V305.81z"/>
		<path class="st1" d="M974.28,298.5c1.23-2.5,3.56-3.78,6.26-3.78c1.43,0,2.63,0.38,3.13,0.55l-0.5,5.73
			c-0.65-0.23-1.7-0.55-2.98-0.55c-2.83,0-5.81,1.53-5.81,6.49v12.32h-6.43v-24.04h6.21L974.28,298.5z"/>
		<path class="st1" d="M998.01,294.72c7.39,0,12.84,5.43,12.84,12.52c0,7.11-5.46,12.52-12.84,12.52c-7.36,0-12.85-5.41-12.85-12.52
			C985.16,300.15,990.65,294.72,998.01,294.72z M998.01,313.95c3.78,0,6.46-2.85,6.46-6.71c0-3.83-2.68-6.69-6.46-6.69
			c-3.76,0-6.46,2.85-6.46,6.69C991.55,311.09,994.25,313.95,998.01,313.95z"/>
		<path class="st1" d="M1030.94,295.22h6.41v14.15c0,6.08-4.58,10.39-11.37,10.39c-6.81,0-11.24-4.26-11.24-10.24v-14.3h6.44v13.5
			c0,3.05,1.98,5.13,4.81,5.13c2.98,0,4.96-2.08,4.96-5.13V295.22z"/>
		<path class="st1" d="M1068.62,307.34c0,7.26-4.83,12.42-11.64,12.42c-3.53,0-6.21-1.2-7.81-3.03v12.54h-6.41v-34.05h6.18l0.12,2.9
			c1.58-2,4.06-3.41,7.91-3.41C1063.79,294.72,1068.62,300.02,1068.62,307.34z M1055.68,314c3.81,0,6.51-2.88,6.51-6.69
			c0-3.88-2.68-6.83-6.51-6.83c-3.81,0-6.54,3-6.54,6.83C1049.14,311.12,1051.89,314,1055.68,314z"/>
	</g>
	<g>
		<path class="st2" d="M745.32,287.97c-0.76,0-1.54-0.19-2.25-0.6l-46.72-26.97c-1.39-0.8-2.25-2.29-2.25-3.9v-26.97
			c0-2.49,2.01-4.5,4.5-4.5s4.5,2.01,4.5,4.5v24.37l44.47,25.67c2.15,1.24,2.89,4,1.65,6.15
			C748.39,287.16,746.88,287.97,745.32,287.97z"/>
	</g>
	<g>
		<linearGradient id="SVGID_1_" gradientUnits="userSpaceOnUse" x1="694.7111" y1="285.7148" x2="749.2225" y2="254.2426">
			<stop  offset="0.2" style="stop-color:#FFFFFF"/>
			<stop  offset="0.8" style="stop-color:#E30613"/>
		</linearGradient>
		<path class="st3" d="M698.61,287.97c-1.55,0-3.07-0.81-3.9-2.25c-1.24-2.15-0.5-4.9,1.65-6.15l46.72-26.97
			c2.15-1.24,4.9-0.5,6.15,1.65c1.24,2.15,0.5,4.9-1.65,6.15l-46.72,26.97C700.15,287.77,699.38,287.97,698.61,287.97z"/>
	</g>
	<g>
		
			<linearGradient id="SVGID_00000103225107286227196570000011151474641922111934_" gradientUnits="userSpaceOnUse" x1="694.7111" y1="312.6864" x2="749.2225" y2="281.2142">
			<stop  offset="0.2" style="stop-color:#FFFFFF"/>
			<stop  offset="0.8" style="stop-color:#E30613"/>
		</linearGradient>
		<path style="fill:url(#SVGID_00000103225107286227196570000011151474641922111934_);" d="M698.61,314.94
			c-1.55,0-3.07-0.81-3.9-2.25c-1.24-2.15-0.5-4.9,1.65-6.15l46.72-26.97c2.15-1.24,4.9-0.5,6.15,1.65c1.24,2.15,0.5,4.9-1.65,6.15
			l-46.72,26.97C700.15,314.74,699.38,314.94,698.61,314.94z"/>
	</g>
	<g>
		<path class="st1" d="M698.6,314.94c-0.76,0-1.54-0.19-2.25-0.6l-46.72-26.97c-2.15-1.24-2.89-4-1.65-6.15
			c1.24-2.15,4-2.89,6.15-1.65l46.72,26.97c2.15,1.24,2.89,4,1.65,6.15C701.67,314.13,700.16,314.94,698.6,314.94z"/>
	</g>
	<g>
		
			<linearGradient id="SVGID_00000134962867259872537590000007285915050976126883_" gradientUnits="userSpaceOnUse" x1="694.7111" y1="339.6581" x2="749.2225" y2="308.1859">
			<stop  offset="0.2" style="stop-color:#FFFFFF"/>
			<stop  offset="0.8" style="stop-color:#E30613"/>
		</linearGradient>
		<path style="fill:url(#SVGID_00000134962867259872537590000007285915050976126883_);" d="M698.61,341.91
			c-1.55,0-3.07-0.81-3.9-2.25c-1.24-2.15-0.5-4.9,1.65-6.15l46.72-26.97c2.15-1.24,4.9-0.5,6.15,1.65c1.24,2.15,0.5,4.9-1.65,6.15
			l-46.72,26.97C700.15,341.71,699.38,341.91,698.61,341.91z"/>
	</g>
	<g>
		<path class="st1" d="M698.6,341.91c-0.76,0-1.54-0.19-2.25-0.6l-46.72-26.97c-1.39-0.8-2.25-2.29-2.25-3.9s0.86-3.09,2.25-3.9
			L673,293.05c2.15-1.24,4.9-0.51,6.15,1.65c1.24,2.15,0.5,4.9-1.65,6.15l-16.61,9.59l39.97,23.07c2.15,1.24,2.89,4,1.65,6.15
			C701.67,341.1,700.16,341.91,698.6,341.91z"/>
	</g>
	<g>
		<path class="st1" d="M651.89,287.96c-2.49,0-4.5-2.01-4.5-4.5v-26.97c0-2.49,2.01-4.5,4.5-4.5s4.5,2.01,4.5,4.5v26.97
			C656.39,285.95,654.38,287.96,651.89,287.96z"/>
	</g>
	<g>
		<path class="st2" d="M745.33,314.94c-2.49,0-4.5-2.01-4.5-4.5v-26.97c0-2.49,2.01-4.5,4.5-4.5s4.5,2.01,4.5,4.5v26.97
			C749.83,312.92,747.81,314.94,745.33,314.94z"/>
	</g>
	<g>
		<path class="st1" d="M698.61,341.91c-2.49,0-4.5-2.01-4.5-4.5v-26.97c0-2.49,2.01-4.5,4.5-4.5s4.5,2.01,4.5,4.5v26.97
			C703.11,339.89,701.09,341.91,698.61,341.91z"/>
	</g>
	<g>
		<path class="st1" d="M698.6,287.97c-0.76,0-1.54-0.19-2.25-0.6l-46.72-26.97c-2.15-1.24-2.89-4-1.65-6.15
			c1.24-2.15,4-2.89,6.15-1.65l46.72,26.97c2.15,1.24,2.89,4,1.65,6.15C701.67,287.16,700.16,287.97,698.6,287.97z"/>
	</g>
	<g>
		
			<linearGradient id="SVGID_00000113315333879215688410000000864140950016617352_" gradientUnits="userSpaceOnUse" x1="647.9952" y1="258.7429" x2="702.5059" y2="227.2711">
			<stop  offset="0.2" style="stop-color:#FFFFFF"/>
			<stop  offset="0.8" style="stop-color:#E30613"/>
		</linearGradient>
		<path style="fill:url(#SVGID_00000113315333879215688410000000864140950016617352_);" d="M651.9,260.99
			c-1.55,0-3.07-0.81-3.9-2.25c-1.24-2.15-0.5-4.9,1.65-6.15l46.72-26.97c2.15-1.24,4.9-0.5,6.15,1.65c1.24,2.15,0.5,4.9-1.65,6.15
			l-46.72,26.97C653.43,260.8,652.66,260.99,651.9,260.99z"/>
	</g>
	<g>
		<path class="st2" d="M745.32,260.99c-0.76,0-1.54-0.19-2.25-0.6l-46.72-26.97c-2.15-1.24-2.89-4-1.65-6.15
			c1.24-2.15,4-2.89,6.15-1.65l46.72,26.97c2.15,1.24,2.89,4,1.65,6.15C748.39,260.19,746.88,260.99,745.32,260.99z"/>
	</g>
</g>
<g>
	<g>
		<path class="st1" d="M210.16,240.74l-0.58,6.01c-1.78-1.05-6.18-2.18-9.84-2.18c-3.68,0-6.31,1.13-6.31,3.93
			c0,2.83,2.4,3.33,4.73,4.03l4.91,1.45c5.61,1.65,8.81,4.06,8.81,9.26c0,6.03-5.13,10.37-12.9,10.37c-4.81,0-10.24-1.2-12.59-2.5
			l0.55-6.04c1.68,1.05,7.21,2.53,11.44,2.53c3.58,0,6.44-1.25,6.44-4.03c0-2.15-1.28-3.11-4.16-3.88l-5.38-1.45
			c-4.33-1.18-8.89-3.53-8.89-9.19c0-6.28,4.93-10.44,12.87-10.44C204.02,238.61,207.45,239.54,210.16,240.74z"/>
		<path class="st1" d="M232.11,249.08h6.41v14.15c0,6.08-4.58,10.39-11.37,10.39c-6.81,0-11.24-4.26-11.24-10.24v-14.3h6.44v13.5
			c0,3.05,1.98,5.13,4.81,5.13c2.98,0,4.96-2.08,4.96-5.13V249.08z"/>
		<path class="st1" d="M265.58,252.83c1.7-2.55,4.76-4.26,8.34-4.26c5.51,0,9.44,3.58,9.44,9.44v15.1h-6.44v-13.45
			c0-3.33-2.05-5.13-4.81-5.13c-2.75,0-5.28,1.73-5.28,4.98v13.6h-6.44v-13.45c0-3.33-2.08-5.13-4.78-5.13
			c-2.78,0-5.26,1.8-5.26,5.13v13.45h-6.43v-24.04h6.11l0.12,2.78c1.23-1.68,3.83-3.28,7.36-3.28
			C261.17,248.58,264.18,250.1,265.58,252.83z"/>
		<path class="st1" d="M310.47,252.83c1.7-2.55,4.76-4.26,8.34-4.26c5.51,0,9.44,3.58,9.44,9.44v15.1h-6.44v-13.45
			c0-3.33-2.05-5.13-4.81-5.13c-2.75,0-5.28,1.73-5.28,4.98v13.6h-6.44v-13.45c0-3.33-2.08-5.13-4.78-5.13
			c-2.78,0-5.26,1.8-5.26,5.13v13.45h-6.43v-24.04h6.11l0.12,2.78c1.23-1.68,3.83-3.28,7.36-3.28
			C306.06,248.58,309.07,250.1,310.47,252.83z"/>
		<path class="st1" d="M333.17,241.37c0-2.18,1.5-3.71,3.68-3.71c2.18,0,3.71,1.5,3.71,3.71c0,2.18-1.53,3.68-3.71,3.68
			C334.68,245.05,333.17,243.54,333.17,241.37z M333.65,273.12v-24.04h6.43v24.04H333.65z"/>
		<path class="st1" d="M353.57,254.41v9.89c0,2.5,1.4,3.61,3.56,3.61c1.2,0,2.73-0.2,4.08-0.58l0.6,5.33
			c-1.48,0.58-3.86,0.95-5.81,0.95c-5.28,0-8.84-2.73-8.84-8.39v-10.82h-4.06v-5.33h4.08v-7.71h6.23v7.71h6.96v5.33H353.57z"/>
		<path class="st1" d="M392.92,263.1h-7.86v10.02h-6.76v-34h15.77c6.86,0,12.42,4.36,12.42,12.02c0,4.93-2.75,8.81-6.64,10.69
			l9.01,11.27h-8.16L392.92,263.1z M385.06,244.97v12.29h8.24c3.61,0,6.23-2.48,6.23-6.11c0-3.96-2.68-6.18-6.23-6.18H385.06z"/>
		<path class="st1" d="M433.36,271.36c-2.33,1.33-5.56,2.25-9.06,2.25c-8.51,0-13.97-5.03-13.97-12.52
			c0-7.36,5.21-12.52,12.34-12.52c7.39,0,13,5.56,11.42,14.45h-17.38c0.65,3.36,3.66,4.96,7.61,4.96c2.98,0,5.76-0.7,8.14-1.83
			L433.36,271.36z M428.33,258.72c-0.17-2.68-2.2-4.73-5.51-4.73c-3.43,0-5.73,2-6.01,4.73H428.33z"/>
		<path class="st1" d="M446.73,254.41v9.89c0,2.5,1.4,3.61,3.56,3.61c1.2,0,2.73-0.2,4.08-0.58l0.6,5.33
			c-1.48,0.58-3.86,0.95-5.81,0.95c-5.28,0-8.84-2.73-8.84-8.39v-10.82h-4.06v-5.33h4.08v-7.71h6.23v7.71h6.96v5.33H446.73z"/>
		<path class="st1" d="M456.54,261.05c0-7.29,4.98-12.47,11.59-12.47c3.73,0,6.26,1.43,7.84,3.41l0.13-2.9h6.28v24.04h-6.28
			l-0.13-2.9c-1.58,2-4.11,3.41-7.84,3.41C461.52,273.62,456.54,268.33,456.54,261.05z M469.39,254.31c-3.86,0-6.46,2.9-6.46,6.74
			c0,3.86,2.6,6.86,6.46,6.86c3.83,0,6.56-3,6.56-6.86C475.95,257.21,473.22,254.31,469.39,254.31z"/>
		<path class="st1" d="M487.52,241.37c0-2.18,1.5-3.71,3.68-3.71c2.18,0,3.71,1.5,3.71,3.71c0,2.18-1.53,3.68-3.71,3.68
			C489.03,245.05,487.52,243.54,487.52,241.37z M488,273.12v-24.04h6.43v24.04H488z"/>
		<path class="st1" d="M506.47,273.12h-6.41v-35.26h6.41V273.12z"/>
		<path class="st1" d="M206.23,308.86l-11.44-12.82v23.21h-6.76v-34h5.86l12.87,15.22l12.82-15.22h5.83v34h-6.74v-23.24
			l-11.37,12.84H206.23z"/>
		<path class="st1" d="M253.39,317.5c-2.33,1.33-5.56,2.25-9.06,2.25c-8.51,0-13.97-5.03-13.97-12.52c0-7.36,5.21-12.52,12.34-12.52
			c7.39,0,13,5.56,11.42,14.45h-17.38c0.65,3.36,3.66,4.96,7.61,4.96c2.98,0,5.76-0.7,8.14-1.83L253.39,317.5z M248.36,304.86
			c-0.17-2.68-2.2-4.73-5.51-4.73c-3.43,0-5.73,2-6.01,4.73H248.36z"/>
		<path class="st1" d="M257.36,307.21c0-7.31,4.83-12.5,11.64-12.5c3.86,0,6.33,1.4,7.94,3.41v-14.15h6.31v35.28h-6.31l-0.12-2.55
			c-1.6,1.85-4.28,3.05-7.81,3.05C262.19,319.76,257.36,314.47,257.36,307.21z M270.33,300.48c-3.83,0-6.51,2.83-6.51,6.71
			c0,3.81,2.68,6.81,6.51,6.81c3.78,0,6.54-3,6.54-6.81C276.86,303.35,274.11,300.48,270.33,300.48z"/>
		<path class="st1" d="M288.39,287.5c0-2.18,1.5-3.71,3.68-3.71c2.18,0,3.71,1.5,3.71,3.71c0,2.18-1.53,3.68-3.71,3.68
			C289.89,291.19,288.39,289.68,288.39,287.5z M288.87,319.25v-24.04h6.43v24.04H288.87z"/>
		<path class="st1" d="M299.59,307.19c0-7.29,4.98-12.47,11.59-12.47c3.73,0,6.26,1.43,7.84,3.41l0.13-2.9h6.28v24.04h-6.28
			l-0.13-2.9c-1.58,2-4.11,3.41-7.84,3.41C304.58,319.76,299.59,314.47,299.59,307.19z M312.44,300.45c-3.86,0-6.46,2.9-6.46,6.74
			c0,3.86,2.6,6.86,6.46,6.86c3.83,0,6.56-3,6.56-6.86C319,303.35,316.27,300.45,312.44,300.45z"/>
		<path class="st1" d="M368.67,305.81h-9.14v-5.71h15.85v16.6c-3.46,1.9-8.46,3.05-12.75,3.05c-12.32,0-20.01-7.29-20.01-17.5
			c0-11.07,8.84-17.48,20.31-17.48c3.86,0,7.66,0.78,10.99,2.3l-0.53,6.03c-1.5-0.68-5.43-2.18-10.09-2.18
			c-7.89,0-13.67,3.93-13.67,11.32c0,6.89,5.11,11.34,12.72,11.34c2.05,0,4.78-0.3,6.31-1V305.81z"/>
		<path class="st1" d="M387.35,298.5c1.23-2.5,3.56-3.78,6.26-3.78c1.43,0,2.63,0.38,3.13,0.55l-0.5,5.73
			c-0.65-0.23-1.7-0.55-2.98-0.55c-2.83,0-5.81,1.53-5.81,6.49v12.32h-6.43v-24.04h6.21L387.35,298.5z"/>
		<path class="st1" d="M411.08,294.72c7.39,0,12.84,5.43,12.84,12.52c0,7.11-5.46,12.52-12.84,12.52c-7.36,0-12.85-5.41-12.85-12.52
			C398.23,300.15,403.72,294.72,411.08,294.72z M411.08,313.95c3.78,0,6.46-2.85,6.46-6.71c0-3.83-2.68-6.69-6.46-6.69
			c-3.76,0-6.46,2.85-6.46,6.69C404.62,311.09,407.32,313.95,411.08,313.95z"/>
		<path class="st1" d="M444.01,295.22h6.41v14.15c0,6.08-4.58,10.39-11.37,10.39c-6.81,0-11.24-4.26-11.24-10.24v-14.3h6.44v13.5
			c0,3.05,1.98,5.13,4.81,5.13c2.98,0,4.96-2.08,4.96-5.13V295.22z"/>
		<path class="st1" d="M481.69,307.34c0,7.26-4.83,12.42-11.64,12.42c-3.53,0-6.21-1.2-7.81-3.03v12.54h-6.41v-34.05h6.18l0.12,2.9
			c1.58-2,4.06-3.41,7.91-3.41C476.86,294.72,481.69,300.02,481.69,307.34z M468.75,314c3.81,0,6.51-2.88,6.51-6.69
			c0-3.88-2.68-6.83-6.51-6.83c-3.81,0-6.54,3-6.54,6.83C462.21,311.12,464.97,314,468.75,314z"/>
	</g>
	<g>
		<path class="st2" d="M158.39,287.97c-0.76,0-1.54-0.19-2.25-0.6l-46.72-26.97c-1.39-0.8-2.25-2.29-2.25-3.9v-26.97
			c0-2.49,2.01-4.5,4.5-4.5s4.5,2.01,4.5,4.5v24.37l44.47,25.67c2.15,1.24,2.89,4,1.65,6.15
			C161.46,287.16,159.95,287.97,158.39,287.97z"/>
	</g>
	<g>
		
			<linearGradient id="SVGID_00000059293437672086334940000008169712443876225957_" gradientUnits="userSpaceOnUse" x1="107.782" y1="285.7148" x2="162.2934" y2="254.2426">
			<stop  offset="0.2" style="stop-color:#FFFFFF"/>
			<stop  offset="0.8" style="stop-color:#E30613"/>
		</linearGradient>
		<path style="fill:url(#SVGID_00000059293437672086334940000008169712443876225957_);" d="M111.68,287.97
			c-1.55,0-3.07-0.81-3.9-2.25c-1.24-2.15-0.5-4.9,1.65-6.15l46.72-26.97c2.15-1.24,4.9-0.5,6.15,1.65c1.24,2.15,0.5,4.9-1.65,6.15
			l-46.72,26.97C113.22,287.77,112.45,287.97,111.68,287.97z"/>
	</g>
	<g>
		
			<linearGradient id="SVGID_00000166654136669648829280000012815195269782407586_" gradientUnits="userSpaceOnUse" x1="107.782" y1="312.6864" x2="162.2934" y2="281.2142">
			<stop  offset="0.2" style="stop-color:#FFFFFF"/>
			<stop  offset="0.8" style="stop-color:#E30613"/>
		</linearGradient>
		<path style="fill:url(#SVGID_00000166654136669648829280000012815195269782407586_);" d="M111.68,314.94
			c-1.55,0-3.07-0.81-3.9-2.25c-1.24-2.15-0.5-4.9,1.65-6.15l46.72-26.97c2.15-1.24,4.9-0.5,6.15,1.65c1.24,2.15,0.5,4.9-1.65,6.15
			l-46.72,26.97C113.22,314.74,112.45,314.94,111.68,314.94z"/>
	</g>
	<g>
		<path class="st1" d="M111.68,314.94c-0.76,0-1.54-0.19-2.25-0.6l-46.72-26.97c-2.15-1.24-2.89-4-1.65-6.15
			c1.24-2.15,4-2.89,6.15-1.65l46.72,26.97c2.15,1.24,2.89,4,1.65,6.15C114.74,314.13,113.23,314.94,111.68,314.94z"/>
	</g>
	<g>
		
			<linearGradient id="SVGID_00000010284123086336389010000005159047905944888724_" gradientUnits="userSpaceOnUse" x1="107.782" y1="339.6581" x2="162.2934" y2="308.1859">
			<stop  offset="0.2" style="stop-color:#FFFFFF"/>
			<stop  offset="0.8" style="stop-color:#E30613"/>
		</linearGradient>
		<path style="fill:url(#SVGID_00000010284123086336389010000005159047905944888724_);" d="M111.68,341.91
			c-1.55,0-3.07-0.81-3.9-2.25c-1.24-2.15-0.5-4.9,1.65-6.15l46.72-26.97c2.15-1.24,4.9-0.5,6.15,1.65c1.24,2.15,0.5,4.9-1.65,6.15
			l-46.72,26.97C113.22,341.71,112.45,341.91,111.68,341.91z"/>
	</g>
	<g>
		<path class="st1" d="M111.68,341.91c-0.76,0-1.54-0.19-2.25-0.6l-46.72-26.97c-1.39-0.8-2.25-2.29-2.25-3.9s0.86-3.09,2.25-3.9
			l23.36-13.49c2.15-1.24,4.9-0.51,6.15,1.65c1.24,2.15,0.5,4.9-1.65,6.15l-16.61,9.59l39.97,23.07c2.15,1.24,2.89,4,1.65,6.15
			C114.74,341.1,113.23,341.91,111.68,341.91z"/>
	</g>
	<g>
		<path class="st1" d="M64.96,287.96c-2.49,0-4.5-2.01-4.5-4.5v-26.97c0-2.49,2.01-4.5,4.5-4.5s4.5,2.01,4.5,4.5v26.97
			C69.46,285.95,67.45,287.96,64.96,287.96z"/>
	</g>
	<g>
		<path class="st2" d="M158.4,314.94c-2.49,0-4.5-2.01-4.5-4.5v-26.97c0-2.49,2.01-4.5,4.5-4.5s4.5,2.01,4.5,4.5v26.97
			C162.9,312.92,160.88,314.94,158.4,314.94z"/>
	</g>
	<g>
		<path class="st1" d="M111.68,341.91c-2.49,0-4.5-2.01-4.5-4.5v-26.97c0-2.49,2.01-4.5,4.5-4.5s4.5,2.01,4.5,4.5v26.97
			C116.18,339.89,114.16,341.91,111.68,341.91z"/>
	</g>
	<g>
		<path class="st1" d="M111.68,287.97c-0.76,0-1.54-0.19-2.25-0.6l-46.72-26.97c-2.15-1.24-2.89-4-1.65-6.15
			c1.24-2.15,4-2.89,6.15-1.65l46.72,26.97c2.15,1.24,2.89,4,1.65,6.15C114.74,287.16,113.23,287.97,111.68,287.97z"/>
	</g>
	<g>
		
			<linearGradient id="SVGID_00000094593532687632980950000015093246163901734279_" gradientUnits="userSpaceOnUse" x1="61.066" y1="258.7429" x2="115.5767" y2="227.2711">
			<stop  offset="0.2" style="stop-color:#FFFFFF"/>
			<stop  offset="0.8" style="stop-color:#E30613"/>
		</linearGradient>
		<path style="fill:url(#SVGID_00000094593532687632980950000015093246163901734279_);" d="M64.97,260.99
			c-1.55,0-3.07-0.81-3.9-2.25c-1.24-2.15-0.5-4.9,1.65-6.15l46.72-26.97c2.15-1.24,4.9-0.5,6.15,1.65c1.24,2.15,0.5,4.9-1.65,6.15
			l-46.72,26.97C66.5,260.8,65.73,260.99,64.97,260.99z"/>
	</g>
	<g>
		<path class="st2" d="M158.39,260.99c-0.76,0-1.54-0.19-2.25-0.6l-46.72-26.97c-2.15-1.24-2.89-4-1.65-6.15
			c1.24-2.15,4-2.89,6.15-1.65l46.72,26.97c2.15,1.24,2.89,4,1.65,6.15C161.46,260.19,159.95,260.99,158.39,260.99z"/>
	</g>
</g>
</svg>
